<?xml version="1.0" standalone="no"?>
<!DOCTYPE svg PUBLIC "-//W3C//DTD SVG 20010904//EN"
 "http://www.w3.org/TR/2001/REC-SVG-20010904/DTD/svg10.dtd">
<svg version="1.0" xmlns="http://www.w3.org/2000/svg"
 width="484.000000pt" height="441.000000pt" viewBox="0 0 484.000000 441.000000"
 preserveAspectRatio="xMidYMid meet">

<g transform="translate(0.000000,441.000000) scale(0.100000,-0.100000)"
fill="#000000" stroke="none">
<path d="M462 3983 c-40 -8 -109 -83 -122 -133 -23 -83 20 -178 97 -216 34
-17 67 -19 325 -22 l287 -3 10 -37 c5 -20 29 -115 52 -210 23 -96 48 -180 56
-188 22 -22 61 -17 78 10 15 22 12 39 -43 261 -48 193 -63 242 -82 257 -20 16
-46 18 -316 18 -310 0 -333 3 -353 47 -17 37 -13 62 14 88 l24 25 313 0 c176
0 329 -4 349 -10 51 -14 111 -70 136 -126 12 -27 49 -161 82 -299 58 -241 176
-722 302 -1236 l61 -247 -20 -45 c-25 -57 -53 -75 -133 -88 -76 -12 -111 -32
-146 -82 -56 -81 -37 -192 44 -254 l36 -28 630 -3 c461 -2 633 1 643 9 17 14
18 61 2 77 -9 9 -158 12 -610 12 -506 0 -603 2 -627 15 -32 16 -41 33 -41 75
0 33 40 70 75 70 46 0 128 33 165 66 41 37 80 109 80 147 l0 24 978 7 c1116 8
997 -5 1025 111 9 39 33 138 52 220 34 140 48 199 125 520 17 69 43 180 59
248 17 67 46 189 66 271 33 138 35 150 20 172 l-15 24 -1341 2 -1341 3 -27
110 c-15 61 -37 131 -49 156 -30 63 -96 126 -162 158 l-55 26 -340 1 c-187 1
-350 0 -363 -3z m1437 -680 c12 -65 28 -148 35 -185 l14 -68 -187 0 -186 0
-39 163 c-21 89 -41 172 -44 185 l-4 22 194 0 194 0 23 -117z m500 -45 c6 -90
15 -173 18 -185 l5 -23 -181 0 c-137 0 -183 3 -185 13 -7 21 -66 334 -66 346
0 8 57 11 198 11 l198 0 13 -162z m641 150 c0 -7 -7 -85 -15 -173 -8 -88 -15
-166 -15 -173 0 -10 -52 -12 -242 -10 l-243 3 -7 80 c-5 44 -11 126 -16 183
l-8 102 273 0 c212 0 273 -3 273 -12z m506 -5 c-6 -19 -66 -333 -66 -345 0 -5
-81 -8 -180 -8 -165 0 -180 1 -180 18 0 9 7 89 15 177 8 88 15 163 15 168 0 4
90 7 201 7 186 0 200 -1 195 -17z m494 10 c0 -5 -19 -88 -42 -185 l-42 -178
-183 0 c-101 0 -183 4 -183 9 0 9 56 299 65 339 5 22 7 22 195 22 105 0 190
-3 190 -7z m-2070 -476 c0 -1 16 -82 35 -180 19 -97 35 -182 35 -187 0 -7 -61
-10 -172 -8 l-172 3 -43 170 c-23 94 -42 178 -43 188 0 16 15 17 180 17 99 0
180 -1 180 -3z m466 -117 c6 -63 14 -148 17 -187 l6 -73 -154 0 -153 0 -7 43
c-4 23 -20 107 -36 187 -16 80 -29 146 -29 148 0 1 78 1 173 0 l172 -3 11
-115z m560 78 c-3 -24 -10 -109 -17 -190 l-12 -148 -198 0 c-198 0 -199 0
-203 23 -5 28 -26 293 -26 330 l0 27 231 0 230 0 -5 -42z m454 33 c0 -10 -45
-247 -60 -318 l-12 -53 -149 0 -149 0 0 28 c0 33 20 275 26 320 l5 32 169 0
c94 0 170 -4 170 -9z m470 -8 c0 -10 -18 -96 -41 -190 l-42 -173 -174 0 -175
0 6 26 c4 15 20 94 37 178 16 83 31 157 34 164 3 9 49 12 180 12 160 0 175 -2
175 -17z m-1821 -645 c18 -95 35 -181 37 -191 5 -16 -5 -17 -157 -15 l-163 3
-46 188 -47 187 171 0 172 0 33 -172z m376 95 c3 -43 10 -119 16 -170 15 -149
28 -133 -115 -133 l-124 0 -11 48 c-16 71 -61 308 -61 321 0 7 46 11 144 11
l144 0 7 -77z m481 50 c-3 -16 -10 -95 -17 -178 -6 -82 -13 -156 -15 -162 -2
-10 -43 -13 -159 -13 -85 0 -155 3 -155 8 0 4 -7 79 -15 167 -8 88 -15 170
-15 183 l0 22 191 0 191 0 -6 -27z m386 -55 c-8 -46 -24 -130 -36 -188 l-21
-105 -123 -3 -122 -3 0 53 c0 56 18 269 26 306 4 22 7 22 148 22 l143 0 -15
-82z m462 54 c-3 -15 -23 -97 -43 -182 l-38 -155 -39 -7 c-21 -4 -94 -7 -161
-7 -106 -1 -123 1 -123 15 0 13 48 265 65 342 5 22 7 22 175 22 l170 0 -6 -28z"/>
<path d="M1216 3044 c-9 -8 -16 -22 -16 -30 0 -15 62 -272 170 -709 l57 -230
-55 -28 c-144 -75 -242 -239 -242 -408 0 -173 103 -332 265 -409 60 -29 83
-34 167 -38 54 -3 98 -8 98 -11 0 -4 -16 -23 -36 -42 -47 -46 -89 -113 -116
-185 -41 -113 -25 -331 27 -350 23 -9 62 4 69 23 4 9 1 50 -6 90 -22 134 15
257 107 349 181 182 476 146 616 -74 15 -25 36 -79 45 -120 14 -64 15 -85 5
-141 -24 -130 -112 -244 -229 -299 -50 -23 -70 -27 -157 -27 -113 0 -150 12
-246 78 -63 44 -88 44 -108 1 -16 -36 4 -64 74 -109 112 -72 245 -99 370 -76
131 24 272 121 337 232 61 103 85 242 63 364 -11 63 -70 177 -120 233 -25 27
-45 53 -45 56 0 3 171 6 380 6 209 0 380 -4 380 -8 0 -5 -14 -21 -31 -38 -18
-16 -47 -53 -66 -82 -128 -198 -100 -458 69 -626 108 -106 237 -154 388 -143
96 7 158 29 243 85 252 165 296 523 93 749 -25 28 -46 54 -46 57 0 3 51 6 114
6 63 0 127 5 143 11 35 13 80 55 100 92 19 37 19 127 0 164 -20 37 -65 79
-100 92 -19 7 -199 11 -527 11 -440 0 -500 -2 -514 -16 -19 -18 -20 -38 -6
-65 10 -18 26 -19 493 -19 439 0 485 -2 516 -18 62 -31 62 -108 1 -139 -34
-17 -2341 -19 -2422 -2 -73 16 -123 43 -177 97 -65 65 -93 129 -99 224 -10
160 77 291 235 352 53 20 58 25 61 56 2 18 -6 69 -17 114 -18 72 -156 636
-197 806 -9 36 -22 75 -30 88 -17 26 -55 29 -78 6z m2348 -1900 c113 -53 194
-162 218 -293 31 -163 -68 -344 -229 -419 -51 -24 -70 -27 -158 -27 -91 0
-106 3 -165 31 -83 39 -150 106 -192 191 -30 62 -33 75 -33 163 0 86 4 102 32
162 95 201 328 286 527 192z"/>
<path d="M3301 1047 c-51 -16 -137 -100 -158 -155 -41 -107 -12 -226 73 -301
205 -180 511 18 435 282 -18 62 -82 134 -146 163 -55 26 -143 31 -204 11z
m180 -120 c37 -24 79 -97 79 -137 0 -79 -83 -160 -165 -160 -135 0 -213 163
-126 264 51 60 149 75 212 33z"/>
<path d="M1895 1047 c-89 -35 -144 -95 -171 -183 -18 -60 -18 -88 1 -151 31
-105 147 -193 254 -193 60 0 134 27 178 65 145 124 117 360 -52 447 -48 25
-165 34 -210 15z m175 -120 c103 -69 97 -223 -11 -277 -118 -61 -253 32 -236
162 6 48 30 84 77 116 46 31 124 31 170 -1z"/>
</g>
</svg>
