<svg width="29" height="29" viewBox="0 0 29 29" fill="none" xmlns="http://www.w3.org/2000/svg">
<path d="M26.5832 6.64584V22.3542C26.5832 22.8375 26.4019 23.2604 26.0394 23.6229C25.6769 23.9854 25.254 24.1667 24.7707 24.1667H4.229C3.74567 24.1667 3.32275 23.9854 2.96025 23.6229C2.59775 23.2604 2.4165 22.8375 2.4165 22.3542V6.64584C2.4165 6.1625 2.59775 5.73959 2.96025 5.37709C3.32275 5.01459 3.74567 4.83334 4.229 4.83334H24.7707C25.254 4.83334 25.6769 5.01459 26.0394 5.37709C26.4019 5.73959 26.5832 6.1625 26.5832 6.64584ZM4.229 9.93854H24.7707V6.64584H4.229V9.93854ZM4.229 13.8354V22.3542H24.7707V13.8354H4.229Z" fill="#165A7A"/>
</svg>
