<?xml version="1.0" standalone="no"?>
<!DOCTYPE svg PUBLIC "-//W3C//DTD SVG 20010904//EN"
 "http://www.w3.org/TR/2001/REC-SVG-20010904/DTD/svg10.dtd">
<svg version="1.0" xmlns="http://www.w3.org/2000/svg"
 width="473.000000pt" height="413.000000pt" viewBox="0 0 473.000000 413.000000"
 preserveAspectRatio="xMidYMid meet">

<g transform="translate(0.000000,413.000000) scale(0.100000,-0.100000)"
fill="#000000" stroke="none">
<path d="M1045 3632 c-61 -22 -75 -49 -75 -146 l0 -76 -38 0 c-49 0 -77 -27
-68 -65 7 -27 40 -45 82 -45 22 0 24 -3 24 -55 0 -52 -2 -55 -24 -55 -42 0
-75 -18 -82 -45 -9 -38 19 -65 68 -65 l38 0 0 -60 0 -60 -38 0 c-49 0 -77 -27
-68 -65 4 -15 17 -30 32 -35 15 -6 200 -10 445 -10 l419 0 0 -55 0 -55 -402 0
c-222 -1 -423 -5 -447 -9 -50 -10 -82 -32 -125 -85 l-31 -38 -5 -186 -5 -187
-77 -5 c-57 -4 -83 -11 -99 -25 -46 -41 -49 -67 -49 -365 0 -259 2 -284 20
-319 25 -50 70 -71 149 -71 l62 0 -3 -117 -3 -118 -77 -5 c-85 -7 -111 -21
-134 -77 -21 -48 -18 -137 6 -182 33 -66 55 -71 318 -71 l230 0 12 -50 c25
-103 119 -210 225 -255 134 -57 303 -27 416 73 50 44 103 135 114 194 l7 38
578 0 578 0 7 -37 c11 -60 64 -151 114 -195 181 -161 462 -126 591 74 21 32
43 81 50 108 l12 50 230 0 c264 0 285 5 320 73 27 54 23 162 -8 204 -33 45
-60 53 -176 53 -134 0 -138 -4 -138 -132 l0 -88 -114 0 -114 0 -12 50 c-26
110 -126 218 -243 262 -114 44 -270 19 -370 -57 l-46 -35 -681 0 -681 0 -46
35 c-100 76 -256 101 -370 57 -117 -44 -217 -152 -243 -262 l-12 -50 -114 0
-114 0 0 789 0 790 24 28 24 28 464 3 c547 3 498 -10 498 133 l0 89 265 0 265
0 0 -55 0 -55 -159 0 c-88 0 -171 -4 -184 -9 -33 -13 -43 -46 -23 -76 l16 -24
482 -3 483 -3 38 -23 c20 -13 48 -38 61 -55 13 -18 83 -181 155 -363 140 -352
154 -376 231 -407 19 -8 133 -38 254 -68 273 -67 266 -63 266 -198 0 -128 26
-165 91 -131 17 10 19 22 19 123 0 88 -4 121 -19 153 -35 76 -68 92 -339 161
-160 40 -251 68 -263 80 -9 10 -70 151 -133 313 -148 376 -150 380 -205 434
-86 85 -109 90 -403 94 l-258 4 0 55 0 54 288 -3 c256 -4 295 -6 364 -26 71
-19 160 -58 245 -108 30 -17 35 -18 60 -4 31 17 41 53 23 76 -21 25 -152 92
-234 119 -137 46 -219 55 -493 55 l-253 0 0 61 0 61 283 -4 c269 -5 286 -7
370 -32 77 -23 149 -54 251 -109 55 -30 111 28 71 73 -42 47 -207 120 -340
152 -65 15 -134 20 -357 25 l-278 6 0 53 0 54 259 0 c350 0 433 -18 638 -136
30 -17 35 -18 60 -4 31 17 41 53 23 76 -19 22 -148 89 -227 117 -128 46 -224
57 -500 57 l-253 0 0 33 c0 45 -25 77 -59 77 -38 0 -51 -17 -51 -67 l0 -43
-265 0 -265 0 0 38 c0 45 -24 72 -63 72 -31 0 -47 -25 -47 -74 l0 -36 -79 0
-78 0 -18 47 c-23 61 -77 118 -139 150 -48 25 -61 27 -216 29 -91 2 -174 0
-185 -4z m330 -113 c42 -12 105 -67 105 -93 0 -14 -23 -16 -200 -16 l-200 0 0
60 0 60 128 0 c70 0 145 -5 167 -11z m18 -230 c32 -17 87 -71 87 -86 0 -10
-42 -13 -200 -13 l-200 0 0 55 0 55 146 0 c87 0 154 -4 167 -11z m367 -44 l0
-55 -78 0 -78 0 -25 55 -26 55 104 0 103 0 0 -55z m640 0 l0 -55 -265 0 -265
0 0 55 0 55 265 0 265 0 0 -55z m-1025 -176 c42 -12 105 -67 105 -93 0 -14
-23 -16 -200 -16 l-200 0 0 60 0 60 128 0 c70 0 145 -5 167 -11z m385 -49 l0
-60 -78 0 -77 0 -27 60 -26 60 104 0 104 0 0 -60z m638 -2 l3 -58 -266 0 -265
0 0 60 0 60 263 -2 262 -3 3 -57z m-1659 -902 c8 -9 11 -92 9 -282 l-3 -269
-55 0 -55 0 -3 274 c-2 213 1 276 10 283 21 13 85 9 97 -6z m857 -925 c92 -41
164 -153 164 -256 0 -103 -73 -215 -168 -258 -58 -26 -169 -28 -224 -5 -53 24
-123 91 -149 146 -28 58 -31 167 -5 224 19 44 66 99 109 130 69 50 185 57 273
19z m1919 5 c50 -21 120 -90 146 -144 17 -35 23 -65 23 -117 0 -87 -27 -146
-90 -205 -61 -56 -105 -73 -189 -74 -124 0 -222 66 -264 178 -34 93 -24 180
33 266 66 100 224 145 341 96z m-2767 -149 l3 -58 -58 3 -58 3 -3 49 c-4 58 6
67 68 64 l45 -3 3 -58z m2297 46 c-4 -10 -12 -37 -18 -60 l-10 -43 -577 0
-577 0 -10 43 c-6 23 -14 50 -18 60 -7 16 26 17 605 17 579 0 612 -1 605 -17z
m1193 8 c9 -5 12 -25 10 -57 l-3 -49 -57 -3 -58 -3 0 54 c0 29 3 57 7 60 9 10
85 8 101 -2z"/>
<path d="M1398 1080 c-58 -32 -83 -74 -83 -145 0 -47 5 -67 23 -93 35 -48 95
-75 155 -69 154 14 202 206 75 300 -39 29 -123 33 -170 7z m120 -102 c7 -7 12
-26 12 -43 0 -38 -16 -55 -51 -55 -34 0 -59 24 -59 55 0 13 7 31 16 39 18 19
65 21 82 4z"/>
<path d="M3340 1089 c-62 -25 -100 -85 -100 -157 0 -121 129 -199 237 -143 63
31 88 74 88 146 0 47 -5 67 -23 93 -44 60 -134 88 -202 61z m104 -115 c36 -35
9 -94 -43 -94 -35 0 -51 17 -51 55 0 17 5 36 12 43 17 17 64 15 82 -4z"/>
<path d="M984 2485 c-20 -30 -10 -63 23 -76 33 -12 239 -12 263 1 34 18 44 48
25 76 -15 24 -18 24 -155 24 -137 0 -140 0 -156 -25z"/>
<path d="M1453 2486 l-28 -24 -3 -268 c-2 -190 0 -276 9 -296 21 -51 50 -58
238 -58 l171 0 32 29 33 29 3 249 c2 136 0 263 -3 282 -4 18 -17 44 -30 57
-24 24 -27 24 -209 24 -181 0 -185 -1 -213 -24z m347 -311 l0 -225 -135 0
-135 0 0 225 0 225 135 0 135 0 0 -225z"/>
<path d="M2053 2486 l-28 -24 -3 -268 c-2 -190 0 -276 9 -296 21 -51 50 -58
238 -58 l171 0 32 29 33 29 3 249 c2 136 0 263 -3 282 -4 18 -17 44 -30 57
-24 24 -27 24 -209 24 -181 0 -185 -1 -213 -24z m347 -311 l0 -225 -135 0
-135 0 0 225 0 225 135 0 135 0 0 -225z"/>
<path d="M2653 2486 l-28 -24 -3 -268 c-2 -190 0 -276 9 -296 22 -54 45 -58
306 -58 208 0 242 2 263 17 34 23 40 33 40 71 0 37 -183 506 -209 536 -35 39
-65 46 -210 46 -133 0 -141 -1 -168 -24z m300 -98 c130 -323 167 -417 167
-427 0 -8 -57 -11 -195 -11 l-195 0 0 225 0 225 109 0 c78 0 110 -4 114 -12z"/>
<path d="M986 2208 c-21 -30 -20 -44 4 -68 18 -18 33 -20 148 -20 135 0 154 5
167 47 4 15 0 28 -14 42 -19 19 -33 21 -155 21 -128 0 -136 -1 -150 -22z"/>
<path d="M983 1924 c-15 -24 -15 -29 -2 -53 15 -26 16 -26 150 -29 150 -3 172
4 172 53 0 48 -23 55 -170 55 -132 0 -133 0 -150 -26z"/>
<path d="M2637 1702 c-22 -24 -21 -45 1 -65 15 -14 40 -17 128 -17 119 0 134
6 134 50 0 44 -15 50 -135 50 -96 0 -114 -3 -128 -18z"/>
</g>
</svg>
