<?xml version="1.0" standalone="no"?>
<!DOCTYPE svg PUBLIC "-//W3C//DTD SVG 20010904//EN"
 "http://www.w3.org/TR/2001/REC-SVG-20010904/DTD/svg10.dtd">
<svg version="1.0" xmlns="http://www.w3.org/2000/svg"
 width="563.000000pt" height="443.000000pt" viewBox="0 0 563.000000 443.000000"
 preserveAspectRatio="xMidYMid meet">

<g transform="translate(0.000000,443.000000) scale(0.100000,-0.100000)"
fill="#000000" stroke="none">
<path d="M2646 3044 c-87 -32 -151 -110 -164 -201 l-7 -48 -43 3 c-157 13
-282 -103 -282 -260 0 -64 -1 -68 -23 -68 -84 0 -189 -77 -222 -163 -10 -26
-20 -47 -23 -47 -3 0 -67 60 -141 133 -75 73 -154 142 -176 152 -56 27 -156
26 -211 -3 -132 -68 -170 -239 -80 -360 19 -26 192 -203 383 -394 357 -357
376 -371 411 -336 27 27 12 60 -58 132 l-70 72 46 45 c62 60 69 75 49 105 -23
36 -50 29 -111 -28 l-55 -52 -129 129 c-72 72 -130 134 -130 140 0 6 18 29 41
50 57 56 64 71 44 101 -24 37 -53 30 -112 -28 l-53 -52 -95 94 c-101 101 -121
137 -109 200 9 43 65 97 108 106 73 13 85 3 509 -420 267 -268 415 -409 442
-421 56 -26 155 -32 208 -11 51 19 110 75 140 130 17 32 22 58 22 122 l0 80
55 17 c94 28 164 105 179 197 l6 35 67 -3 c125 -7 215 46 266 156 l24 54 49
-48 49 -48 -40 -41 c-41 -42 -51 -80 -28 -103 29 -29 56 -8 278 212 135 134
242 232 268 245 98 50 203 60 291 30 l31 -11 -49 -54 c-27 -29 -59 -74 -71
-99 -26 -54 -36 -145 -22 -196 l10 -37 -130 -128 c-200 -199 -240 -271 -258
-466 -12 -126 -36 -191 -96 -265 -44 -53 -44 -92 0 -108 26 -9 32 -6 70 36 75
83 126 215 126 327 0 64 25 157 57 212 14 25 151 171 305 326 193 195 281 290
287 312 23 78 -38 159 -165 219 -119 57 -230 63 -362 21 -81 -26 -150 -79
-302 -232 l-125 -126 -315 314 c-258 258 -325 319 -370 340 -63 29 -132 33
-194 10z m147 -98 c18 -8 125 -108 238 -222 160 -161 208 -217 214 -242 21
-99 -54 -192 -155 -192 -56 0 -72 10 -171 106 -88 86 -114 98 -143 68 -28 -27
-18 -52 49 -125 65 -70 71 -86 67 -153 -4 -44 -39 -94 -83 -116 -45 -23 -87
-25 -132 -6 -45 20 -414 394 -422 429 -4 16 -5 49 -2 73 9 83 97 146 183 129
30 -5 59 -27 140 -106 84 -82 107 -99 133 -99 29 0 51 21 51 50 0 6 -35 47
-79 93 -93 97 -101 111 -101 173 0 61 28 106 83 133 49 24 85 26 130 7z m1587
-409 c0 -14 -29 -51 -82 -104 -46 -46 -86 -83 -90 -83 -5 0 -8 9 -8 20 0 41
32 96 87 152 46 47 60 55 75 47 10 -5 18 -20 18 -32z m-2177 -181 c18 -8 125
-108 238 -222 219 -221 229 -235 215 -309 -8 -40 -47 -90 -87 -110 -36 -19
-102 -19 -137 -1 -32 18 -415 402 -431 433 -18 36 -13 112 9 148 23 37 90 75
133 75 15 0 42 -6 60 -14z"/>
<path d="M2122 1398 c-36 -36 -23 -52 381 -455 216 -216 400 -393 410 -393 22
0 57 35 57 57 0 10 -177 194 -393 410 -403 404 -419 417 -455 381z"/>
</g>
</svg>
