<?xml version="1.0" standalone="no"?>
<!DOCTYPE svg PUBLIC "-//W3C//DTD SVG 20010904//EN"
 "http://www.w3.org/TR/2001/REC-SVG-20010904/DTD/svg10.dtd">
<svg version="1.0" xmlns="http://www.w3.org/2000/svg"
 width="523.000000pt" height="474.000000pt" viewBox="0 0 523.000000 474.000000"
 preserveAspectRatio="xMidYMid meet">

<g transform="translate(0.000000,474.000000) scale(0.100000,-0.100000)"
fill="#000000" stroke="none">
<path d="M1906 4327 c-82 -86 -284 -393 -285 -433 -1 -26 28 -54 56 -54 25 0
37 14 98 115 40 65 91 140 178 259 20 28 199 -239 313 -467 104 -206 173 -394
252 -682 30 -107 63 -291 89 -485 22 -171 25 -707 5 -870 -46 -357 -104 -605
-212 -900 -23 -63 -46 -119 -51 -124 -5 -5 -86 68 -190 172 -101 100 -188 182
-195 182 -6 0 -93 -81 -193 -180 -100 -99 -185 -180 -189 -180 -18 0 -125 315
-172 505 -84 338 -112 573 -112 940 0 541 81 963 272 1425 29 69 57 137 63
152 8 20 8 33 -1 53 -10 22 -18 26 -45 23 -29 -3 -35 -10 -74 -88 -70 -140
-170 -427 -216 -620 -79 -330 -98 -493 -104 -877 -7 -419 18 -656 107 -1018
68 -276 194 -618 235 -637 36 -16 67 7 252 186 94 91 175 166 181 166 5 0 22
-16 36 -35 35 -46 314 -304 343 -318 39 -18 66 12 111 120 134 323 215 647
264 1058 17 147 17 661 0 820 -75 674 -288 1247 -634 1706 -112 149 -119 153
-182 86z"/>
<path d="M3050 4143 c-109 -19 -269 -91 -351 -159 -65 -53 -126 -130 -135
-167 -13 -60 59 -91 93 -40 10 15 46 55 79 89 83 85 178 132 338 169 82 18 96
28 96 64 0 47 -32 59 -120 44z"/>
<path d="M1932 4034 l-22 -15 0 -1439 c0 -1294 2 -1440 16 -1454 21 -22 50
-20 74 4 20 20 20 33 20 1450 0 1417 0 1430 -20 1450 -24 24 -38 25 -68 4z"/>
<path d="M3039 3851 c-166 -37 -356 -126 -373 -174 -8 -21 -6 -31 9 -47 26
-28 42 -26 142 24 240 122 494 139 714 50 57 -23 63 -24 86 -9 19 13 23 23 21
48 -4 39 -33 57 -153 93 -123 36 -319 43 -446 15z"/>
<path d="M3040 3545 c-159 -18 -399 -77 -437 -108 -22 -16 -16 -65 10 -81 20
-14 30 -13 101 9 346 107 737 106 1036 0 295 -106 517 -323 600 -586 40 -128
36 -326 -9 -464 -16 -51 -20 -57 -26 -37 -15 47 -75 164 -114 219 -46 68 -156
177 -224 223 -62 41 -175 92 -257 116 -99 28 -321 26 -414 -4 -114 -37 -185
-80 -272 -167 -66 -65 -89 -96 -121 -165 -22 -47 -48 -113 -57 -147 -36 -134
-36 -334 0 -473 36 -142 178 -387 234 -405 27 -9 70 19 70 46 0 11 -23 50 -51
87 -139 184 -199 412 -165 626 34 209 113 340 260 430 110 68 159 81 311 81
145 0 198 -12 321 -72 186 -90 333 -274 392 -490 l20 -73 -21 -15 c-27 -19
-90 -19 -127 0 -59 31 -89 97 -55 125 8 7 15 27 15 46 0 50 -22 57 -118 40
-152 -26 -247 14 -272 116 -25 102 -48 115 -138 72 -78 -37 -146 -42 -200 -15
-22 11 -43 25 -47 31 -9 14 -58 13 -73 -2 -24 -24 -14 -65 25 -97 70 -58 182
-77 268 -46 57 21 60 20 80 -26 25 -55 97 -116 158 -134 28 -8 78 -15 113 -15
l61 0 7 -39 c20 -130 206 -220 336 -163 85 36 154 156 202 349 31 126 31 336
0 446 -121 427 -517 714 -1061 767 -129 13 -214 11 -361 -5z"/>
<path d="M1048 1968 c-47 -37 -378 -756 -378 -821 0 -20 33 -47 57 -47 32 0
46 25 112 189 67 165 169 386 239 516 24 44 46 94 49 111 8 51 -40 82 -79 52z"/>
<path d="M3216 1427 c-32 -23 -17 -67 38 -108 72 -54 209 -123 316 -159 157
-52 253 -61 592 -58 283 3 300 4 314 22 18 26 18 51 -2 70 -13 14 -57 16 -322
16 -338 0 -417 8 -568 60 -87 29 -171 72 -263 135 -57 38 -77 42 -105 22z"/>
</g>
</svg>
