<?xml version="1.0" standalone="no"?>
<!DOCTYPE svg PUBLIC "-//W3C//DTD SVG 20010904//EN"
 "http://www.w3.org/TR/2001/REC-SVG-20010904/DTD/svg10.dtd">
<svg version="1.0" xmlns="http://www.w3.org/2000/svg"
 width="466.000000pt" height="511.000000pt" viewBox="0 0 466.000000 511.000000"
 preserveAspectRatio="xMidYMid meet">

<g transform="translate(0.000000,511.000000) scale(0.100000,-0.100000)"
fill="#000000" stroke="none">
<path d="M2255 4332 c-103 -34 -185 -150 -185 -262 0 -149 131 -280 281 -280
97 0 205 74 248 170 66 146 -19 329 -175 376 -60 18 -106 17 -169 -4z m189
-126 c132 -100 64 -307 -101 -306 -44 0 -108 34 -136 72 -40 54 -38 141 5 201
50 70 162 87 232 33z"/>
<path d="M2468 3740 c-49 -9 -83 -33 -116 -82 l-27 -42 0 -195 0 -196 -85 -2
c-522 -14 -835 -60 -1250 -184 -379 -114 -597 -237 -646 -365 -25 -67 -9 -113
70 -190 67 -66 144 -113 288 -175 336 -147 745 -238 1181 -265 64 -4 117 -9
117 -13 -1 -3 -7 -17 -15 -31 -10 -18 -14 -62 -15 -161 0 -75 -3 -224 -7 -331
l-6 -196 -71 -11 c-38 -7 -85 -21 -103 -32 -47 -30 -75 -88 -72 -152 l3 -52
-639 -5 -640 -5 -33 -23 c-80 -58 -91 -172 -23 -246 55 -60 -67 -56 1870 -56
1231 0 1788 3 1808 11 44 16 90 67 103 113 21 76 -15 157 -84 190 -29 14 -78
16 -341 16 -288 0 -307 1 -302 18 3 9 26 67 51 127 48 116 52 138 36 195 -13
49 -58 88 -165 145 -279 149 -440 236 -447 244 -10 9 -78 234 -73 242 3 3 53
9 112 13 282 17 574 71 789 146 317 110 474 299 420 508 -20 79 -49 124 -123
193 -68 62 -180 124 -298 164 -97 32 -302 85 -331 85 -31 0 -58 -34 -50 -64 8
-31 25 -40 101 -56 201 -39 411 -126 503 -206 57 -50 102 -131 102 -184 0
-211 -283 -365 -819 -446 -113 -17 -412 -44 -493 -44 l-57 0 33 73 c18 39 66
143 106 231 40 87 72 168 72 180 0 11 -29 84 -65 161 -59 130 -64 146 -69 228
l-6 87 64 0 c35 0 130 -7 211 -16 l147 -16 18 22 c23 28 23 45 0 68 -15 15
-52 22 -178 35 -87 10 -187 17 -220 17 -43 0 -63 4 -67 14 -3 7 -20 97 -37
200 -34 201 -45 239 -83 274 -32 30 -102 50 -149 42z m72 -120 c23 -23 21 -13
60 -250 17 -102 38 -218 46 -259 27 -141 32 -128 -145 -404 -88 -137 -165
-255 -171 -263 -21 -24 -77 -18 -96 11 -9 14 -14 33 -12 43 3 9 74 125 158
257 l152 240 -6 50 c-3 27 -12 86 -20 130 -66 362 -70 387 -62 420 11 43 64
57 96 25z m-126 -551 c8 -40 6 -50 -18 -88 -15 -24 -30 -40 -33 -37 -9 8 -73
157 -73 168 0 5 26 8 58 6 l57 -3 9 -46z m-182 -106 l60 -141 -63 -101 c-109
-171 -112 -178 -111 -238 0 -46 5 -62 30 -92 16 -20 45 -45 64 -56 l36 -20
-37 -89 -36 -88 -133 5 c-74 3 -136 7 -138 10 -2 2 43 109 101 237 l106 232
-67 147 c-37 80 -84 184 -105 230 -22 46 -39 87 -39 92 0 9 84 16 193 15 l79
-1 60 -142z m-345 -110 l105 -231 -102 -224 c-56 -122 -105 -227 -110 -232 -8
-8 -247 18 -258 28 -3 3 7 34 21 68 15 35 27 69 27 77 0 23 -31 51 -55 51 -29
0 -46 -22 -80 -103 -16 -37 -31 -70 -35 -72 -8 -5 -188 36 -315 71 -248 69
-501 184 -590 267 -30 29 -55 61 -55 72 0 10 21 39 48 64 82 80 274 168 532
245 184 55 377 102 384 95 2 -2 42 -96 90 -208 66 -158 83 -207 76 -221 -22
-42 1 -100 40 -100 28 0 80 76 80 118 0 10 -40 111 -89 226 -59 137 -86 209
-78 212 22 8 202 32 230 30 27 -1 34 -13 134 -233z m862 -137 l43 -94 -95
-208 c-52 -115 -103 -226 -113 -246 l-18 -38 -138 0 c-76 0 -138 2 -138 4 0
22 95 215 117 239 16 18 88 123 159 234 71 112 132 203 135 203 3 0 25 -42 48
-94z m-502 -694 l22 -7 -29 -47 -30 -48 0 -184 c0 -200 3 -210 57 -204 45 5
53 35 53 207 l0 155 41 63 c38 58 44 63 78 63 l36 0 64 -217 c55 -185 69 -221
96 -247 17 -17 132 -85 256 -150 123 -66 230 -123 236 -129 10 -7 9 -16 -4
-41 -9 -17 -18 -64 -21 -103 l-5 -73 -404 0 c-382 0 -405 1 -398 18 17 41 25
92 25 172 0 100 -13 134 -53 138 -50 6 -57 -10 -57 -124 0 -118 -10 -149 -54
-163 -32 -10 -243 -35 -285 -34 -50 2 -73 58 -39 97 20 22 37 27 116 37 77 10
96 16 107 33 9 16 14 108 19 369 l6 348 25 39 c24 38 28 40 73 39 26 -1 57 -4
69 -7z m513 -136 c23 -78 50 -152 59 -164 16 -20 83 -58 474 -266 103 -56 127
-76 127 -111 0 -34 -103 -257 -125 -271 -29 -19 -71 -4 -86 29 -9 19 -5 39 21
105 20 50 30 90 27 104 -5 19 -60 52 -259 158 -138 74 -262 144 -275 155 -18
15 -38 67 -78 202 -30 100 -55 184 -55 187 0 7 37 13 86 15 l41 1 43 -144z
m1274 -947 c30 -23 33 -45 10 -77 l-15 -22 -1779 0 -1779 0 -15 22 c-23 32
-20 54 10 77 l27 21 1757 0 1757 0 27 -21z"/>
</g>
</svg>
