<?xml version="1.0" standalone="no"?>
<!DOCTYPE svg PUBLIC "-//W3C//DTD SVG 20010904//EN"
 "http://www.w3.org/TR/2001/REC-SVG-20010904/DTD/svg10.dtd">
<svg version="1.0" xmlns="http://www.w3.org/2000/svg"
 width="360.000000pt" height="357.000000pt" viewBox="0 0 360.000000 357.000000"
 preserveAspectRatio="xMidYMid meet">

<g transform="translate(0.000000,357.000000) scale(0.100000,-0.100000)"
fill="#000000" stroke="none">
<path d="M2225 3241 c-59 -15 -106 -44 -149 -92 -72 -80 -94 -184 -61 -279 15
-42 15 -42 -8 -37 -12 3 -40 9 -62 13 -22 4 -89 32 -150 61 -97 48 -116 54
-157 50 -129 -11 -199 -150 -133 -263 23 -39 40 -51 153 -107 70 -35 159 -72
197 -82 39 -10 73 -21 76 -24 4 -3 9 -54 12 -114 l6 -107 -93 -75 c-130 -104
-131 -108 -122 -334 l6 -179 -52 -15 c-29 -8 -80 -23 -113 -32 -148 -42 -194
-201 -86 -298 49 -44 96 -54 175 -38 33 7 62 9 63 4 2 -4 16 -31 33 -59 37
-65 97 -99 157 -88 54 9 139 98 187 195 l37 75 237 63 c130 35 336 90 457 122
121 33 242 69 268 81 114 52 188 202 157 317 -18 66 -34 69 -191 27 -74 -20
-149 -40 -167 -45 l-32 -10 -80 118 c-43 65 -90 128 -104 139 -14 11 -64 32
-112 46 -54 17 -83 31 -77 37 6 6 22 5 42 -2 26 -9 62 -8 169 5 151 19 178 30
219 83 24 31 28 46 28 103 0 57 -4 72 -27 102 -46 60 -84 72 -209 64 -105 -7
-108 -6 -178 25 l-71 32 31 35 c18 20 42 58 55 86 63 134 -3 309 -140 376 -47
22 -145 33 -191 21z m169 -145 c47 -35 68 -78 68 -136 0 -151 -173 -229 -286
-130 -45 40 -59 79 -54 144 8 101 77 159 180 153 42 -2 65 -10 92 -31z m-631
-302 c82 -42 120 -53 362 -105 230 -50 284 -66 366 -104 105 -49 127 -52 242
-34 71 11 71 11 94 -16 25 -29 24 -60 -3 -81 -8 -6 -64 -17 -126 -24 -108 -13
-113 -12 -179 10 -93 33 -112 24 -131 -62 l-13 -63 -150 -11 c-83 -6 -153 -10
-156 -8 -3 2 -9 58 -13 125 -4 66 -10 127 -12 134 -7 16 -33 27 -144 58 -47
14 -131 48 -188 76 -116 58 -137 82 -108 126 24 36 52 32 159 -21z m696 -605
c35 -12 37 -26 12 -91 l-10 -27 -51 14 c-27 8 -72 21 -99 29 l-49 14 -112 -51
-113 -51 -38 45 -39 44 32 27 c18 16 46 30 63 33 25 4 220 18 341 24 17 0 46
-4 63 -10z m229 -156 l62 -92 -54 -15 c-30 -9 -57 -16 -60 -16 -3 0 -19 21
-37 47 -30 43 -32 49 -21 87 18 69 32 100 41 90 5 -5 36 -50 69 -101z m-771
-47 c41 -52 42 -55 49 -154 l7 -100 -39 -11 c-86 -22 -78 -34 -84 132 -5 141
-1 187 17 187 5 0 27 -24 50 -54z m462 -11 c46 -14 85 -26 86 -27 1 -2 11 -17
23 -35 12 -17 19 -34 15 -36 -5 -3 -62 -20 -128 -37 -66 -17 -151 -40 -190
-51 -108 -30 -105 -31 -105 54 l0 74 88 41 c48 22 96 41 107 41 11 0 58 -11
104 -24z m749 -113 c-40 -78 48 -49 -1029 -337 -257 -69 -480 -125 -496 -125
-16 0 -34 5 -41 12 -14 14 -16 57 -3 77 7 11 295 91 1401 387 74 20 146 39
160 44 34 10 36 -3 8 -58z m-1159 -524 c-34 -51 -61 -78 -76 -78 -12 0 -53 55
-53 71 0 7 103 36 133 38 17 1 16 -2 -4 -31z"/>
<path d="M775 2264 c-110 -21 -226 -84 -307 -166 -54 -55 -79 -91 -121 -176
l-52 -107 -3 -755 -3 -755 22 -18 c20 -16 105 -17 1470 -17 1436 0 1449 0
1469 20 19 19 20 33 20 339 0 307 -1 319 -21 345 -13 16 -30 26 -47 26 -15 0
-54 17 -87 38 -57 35 -64 37 -145 37 -81 0 -88 -2 -143 -37 -75 -50 -114 -50
-187 -3 -95 61 -191 62 -289 2 -78 -49 -114 -49 -192 0 -98 60 -194 59 -289
-2 -49 -32 -61 -35 -126 -35 -39 0 -106 9 -148 20 -237 60 -374 238 -393 507
-6 88 -5 93 20 122 14 17 28 44 32 61 6 26 11 30 38 30 67 1 153 60 176 123
89 235 -325 474 -694 401z m307 -123 c133 -34 245 -107 274 -178 16 -38 6 -76
-25 -92 -26 -14 -84 -14 -115 0 -20 10 -30 9 -51 -5 -23 -15 -25 -22 -23 -77
3 -81 -10 -91 -112 -88 -99 2 -97 3 -115 -24 -12 -19 -13 -30 -4 -54 16 -46
-10 -99 -57 -119 -35 -15 -42 -14 -101 5 -98 32 -114 28 -127 -35 -19 -86
-135 -116 -203 -52 -21 20 -23 29 -23 129 0 97 2 109 19 119 28 15 112 12 141
-5 40 -23 77 -19 96 10 25 38 6 70 -58 100 -38 18 -70 25 -115 25 -35 0 -63 3
-63 8 0 4 15 34 33 67 38 72 81 97 174 103 50 4 71 0 118 -22 73 -33 100 -33
121 -1 26 40 6 70 -68 105 -35 17 -72 30 -83 30 -45 1 -46 17 -3 33 110 42
250 48 370 18z m2 -592 c3 -17 6 -48 6 -68 0 -60 28 -159 70 -249 32 -67 55
-100 117 -162 126 -125 271 -182 469 -184 100 -1 100 -1 165 39 86 53 122 53
208 0 59 -37 70 -40 136 -40 66 0 75 3 143 44 85 51 114 51 190 1 58 -38 115
-54 169 -46 40 5 65 16 153 66 44 25 76 25 120 0 19 -11 54 -30 78 -42 l42
-22 0 -113 0 -112 -50 31 c-93 58 -179 56 -279 -6 -75 -46 -109 -46 -182 -1
-107 66 -191 66 -298 0 -73 -45 -107 -45 -182 1 -103 64 -185 64 -288 0 -75
-46 -109 -46 -182 -1 -107 66 -191 66 -298 0 -73 -45 -107 -45 -182 1 -103 64
-185 64 -288 0 -75 -46 -109 -46 -182 -1 -101 62 -196 66 -281 10 -21 -14 -42
-25 -48 -25 -11 0 -15 602 -4 613 8 7 67 -13 76 -27 4 -6 8 -26 8 -45 0 -100
65 -244 147 -329 42 -45 55 -53 75 -47 28 8 48 32 48 57 0 10 -21 44 -47 76
-54 67 -89 138 -103 212 -17 89 -14 106 20 120 17 7 46 30 64 51 31 37 35 39
78 33 l44 -6 22 -94 c24 -107 73 -219 103 -234 26 -14 56 -4 75 26 15 22 15
27 -6 66 -32 61 -49 113 -65 193 l-13 70 39 42 c23 25 44 61 51 88 10 36 17
45 34 45 16 0 23 -8 28 -31z m-399 -968 c102 -64 182 -64 286 0 37 23 77 39
94 39 17 0 57 -16 94 -39 105 -65 186 -64 286 1 38 24 61 32 95 32 34 0 57 -8
95 -32 100 -65 181 -66 286 -1 37 23 77 39 94 39 17 0 57 -16 94 -39 105 -65
186 -64 286 1 68 44 122 44 190 0 100 -65 181 -66 286 -1 37 23 77 39 94 39
17 0 57 -17 95 -40 36 -22 71 -40 78 -40 8 0 12 -22 12 -75 l0 -75 -1375 0
-1375 0 0 70 0 70 48 25 c26 14 63 34 82 46 46 26 91 21 155 -20z"/>
</g>
</svg>
