<svg width="33" height="33" viewBox="0 0 33 33" fill="none" xmlns="http://www.w3.org/2000/svg">
<path d="M7.70406 27.4656C6.57844 27.4656 5.62031 27.0713 4.82969 26.2825C4.03906 25.4938 3.64375 24.5361 3.64375 23.4094H1.375V7.5625C1.375 7.0125 1.58125 6.53125 1.99375 6.11875C2.40625 5.70625 2.8875 5.5 3.4375 5.5H23.3406V11.2406H26.95L31.625 17.4625V23.4094H29.1844C29.1844 24.5361 28.7904 25.4938 28.0025 26.2825C27.2146 27.0713 26.2578 27.4656 25.1322 27.4656C24.0066 27.4656 23.0484 27.0713 22.2578 26.2825C21.4672 25.4938 21.0719 24.5361 21.0719 23.4094H11.7563C11.7563 24.5323 11.3623 25.4891 10.5744 26.2797C9.78643 27.0703 8.82965 27.4656 7.70406 27.4656ZM7.7 25.4031C8.25 25.4031 8.71979 25.2083 9.10938 24.8188C9.49896 24.4292 9.69375 23.9594 9.69375 23.4094C9.69375 22.8594 9.49896 22.3896 9.10938 22C8.71979 21.6104 8.25 21.4156 7.7 21.4156C7.15 21.4156 6.68021 21.6104 6.29063 22C5.90104 22.3896 5.70625 22.8594 5.70625 23.4094C5.70625 23.9594 5.90104 24.4292 6.29063 24.8188C6.68021 25.2083 7.15 25.4031 7.7 25.4031ZM3.4375 21.3469H4.19375C4.58333 20.7281 5.07651 20.2354 5.67328 19.8688C6.27006 19.5021 6.93464 19.3188 7.66703 19.3188C8.39943 19.3188 9.06927 19.5078 9.67656 19.8859C10.2839 20.2641 10.7823 20.751 11.1719 21.3469H21.2781V7.5625H3.4375V21.3469ZM25.1281 25.4031C25.6781 25.4031 26.1479 25.2083 26.5375 24.8188C26.9271 24.4292 27.1219 23.9594 27.1219 23.4094C27.1219 22.8594 26.9271 22.3896 26.5375 22C26.1479 21.6104 25.6781 21.4156 25.1281 21.4156C24.5781 21.4156 24.1083 21.6104 23.7188 22C23.3292 22.3896 23.1344 22.8594 23.1344 23.4094C23.1344 23.9594 23.3292 24.4292 23.7188 24.8188C24.1083 25.2083 24.5781 25.4031 25.1281 25.4031ZM23.3406 18.3906H29.7344L25.9188 13.3031H23.3406V18.3906Z" fill="#165A7A"/>
</svg>
